<svg xmlns="http://www.w3.org/2000/svg" viewBox="0 0 64 64" fill="none">
  <!-- Film reel outer ring -->
  <circle cx="32" cy="32" r="30" stroke="#c9a84c" stroke-width="2" fill="#141418"/>
  <!-- Reel spokes -->
  <circle cx="32" cy="32" r="8" fill="#c9a84c" opacity="0.9"/>
  <circle cx="32" cy="32" r="4" fill="#0d0d0f"/>
  <!-- Reel holes -->
  <circle cx="32" cy="14" r="4.5" fill="#c9a84c" opacity="0.7"/>
  <circle cx="32" cy="50" r="4.5" fill="#c9a84c" opacity="0.7"/>
  <circle cx="14" cy="32" r="4.5" fill="#c9a84c" opacity="0.7"/>
  <circle cx="50" cy="32" r="4.5" fill="#c9a84c" opacity="0.7"/>
  <circle cx="19.5" cy="19.5" r="4.5" fill="#c9a84c" opacity="0.5"/>
  <circle cx="44.5" cy="44.5" r="4.5" fill="#c9a84c" opacity="0.5"/>
  <circle cx="44.5" cy="19.5" r="4.5" fill="#c9a84c" opacity="0.5"/>
  <circle cx="19.5" cy="44.5" r="4.5" fill="#c9a84c" opacity="0.5"/>
  <!-- Film strip accent at bottom -->
  <rect x="10" y="54" width="44" height="5" rx="1" fill="#c9a84c" opacity="0.15"/>
  <rect x="13" y="54" width="4" height="5" rx="1" fill="#c9a84c" opacity="0.5"/>
  <rect x="20" y="54" width="4" height="5" rx="1" fill="#c9a84c" opacity="0.5"/>
  <rect x="27" y="54" width="4" height="5" rx="1" fill="#c9a84c" opacity="0.5"/>
  <rect x="34" y="54" width="4" height="5" rx="1" fill="#c9a84c" opacity="0.5"/>
  <rect x="41" y="54" width="4" height="5" rx="1" fill="#c9a84c" opacity="0.5"/>
  <rect x="48" y="54" width="4" height="5" rx="1" fill="#c9a84c" opacity="0.5"/>
</svg>
